<mxfile host="app.diagrams.net" modified="2023-06-24T08:16:50.022Z" agent="Mozilla/5.0 (Macintosh; Intel Mac OS X 10_15_7) AppleWebKit/537.36 (KHTML, like Gecko) Chrome/114.0.0.0 Safari/537.36" etag="e2nLkYcuc6y5QWt2ek4-" version="21.5.0" type="device">
  <diagram name="第 1 页" id="f82RttyJD7gP6xK9eply">
    <mxGraphModel dx="1118" dy="633" grid="1" gridSize="10" guides="1" tooltips="1" connect="1" arrows="1" fold="1" page="1" pageScale="1" pageWidth="827" pageHeight="1169" math="0" shadow="0">
      <root>
        <mxCell id="0" />
        <mxCell id="1" parent="0" />
        <mxCell id="V-HGq2eUnzcfwL8OxCPS-1" style="edgeStyle=orthogonalEdgeStyle;rounded=0;orthogonalLoop=1;jettySize=auto;html=1;exitX=1;exitY=0.5;exitDx=0;exitDy=0;" edge="1" parent="1" source="47XsXpt79vy4vAY9p55C-1">
          <mxGeometry relative="1" as="geometry">
            <mxPoint x="560" y="280" as="targetPoint" />
          </mxGeometry>
        </mxCell>
        <mxCell id="47XsXpt79vy4vAY9p55C-1" value="" style="ellipse;whiteSpace=wrap;html=1;aspect=fixed;" parent="1" vertex="1">
          <mxGeometry x="360" y="240" width="80" height="80" as="geometry" />
        </mxCell>
        <mxCell id="47XsXpt79vy4vAY9p55C-2" value="" style="endArrow=classic;html=1;rounded=0;entryX=0;entryY=0.5;entryDx=0;entryDy=0;" parent="1" target="47XsXpt79vy4vAY9p55C-1" edge="1">
          <mxGeometry width="50" height="50" relative="1" as="geometry">
            <mxPoint x="240" y="280" as="sourcePoint" />
            <mxPoint x="440" y="260" as="targetPoint" />
          </mxGeometry>
        </mxCell>
        <mxCell id="47XsXpt79vy4vAY9p55C-3" value="&lt;font style=&quot;font-size: 20px;&quot;&gt;start&lt;/font&gt;" style="text;html=1;align=center;verticalAlign=middle;resizable=0;points=[];autosize=1;strokeColor=none;fillColor=none;" parent="1" vertex="1">
          <mxGeometry x="270" y="240" width="60" height="40" as="geometry" />
        </mxCell>
        <mxCell id="V-HGq2eUnzcfwL8OxCPS-3" value="&lt;font style=&quot;font-size: 20px;&quot;&gt;a&lt;/font&gt;" style="text;html=1;align=center;verticalAlign=middle;resizable=0;points=[];autosize=1;strokeColor=none;fillColor=none;" vertex="1" parent="1">
          <mxGeometry x="485" y="240" width="30" height="40" as="geometry" />
        </mxCell>
        <mxCell id="V-HGq2eUnzcfwL8OxCPS-4" value="" style="ellipse;whiteSpace=wrap;html=1;aspect=fixed;" vertex="1" parent="1">
          <mxGeometry x="560" y="240" width="80" height="80" as="geometry" />
        </mxCell>
        <mxCell id="V-HGq2eUnzcfwL8OxCPS-5" value="" style="ellipse;whiteSpace=wrap;html=1;aspect=fixed;" vertex="1" parent="1">
          <mxGeometry x="565" y="245" width="70" height="70" as="geometry" />
        </mxCell>
        <mxCell id="V-HGq2eUnzcfwL8OxCPS-6" style="edgeStyle=orthogonalEdgeStyle;rounded=0;orthogonalLoop=1;jettySize=auto;html=1;exitX=0;exitY=0;exitDx=0;exitDy=0;entryX=1;entryY=0;entryDx=0;entryDy=0;curved=1;" edge="1" parent="1" source="V-HGq2eUnzcfwL8OxCPS-4" target="V-HGq2eUnzcfwL8OxCPS-4">
          <mxGeometry relative="1" as="geometry">
            <Array as="points">
              <mxPoint x="572" y="200" />
              <mxPoint x="628" y="200" />
            </Array>
          </mxGeometry>
        </mxCell>
        <mxCell id="V-HGq2eUnzcfwL8OxCPS-7" value="&lt;font style=&quot;font-size: 20px;&quot;&gt;a&lt;/font&gt;" style="text;html=1;align=center;verticalAlign=middle;resizable=0;points=[];autosize=1;strokeColor=none;fillColor=none;" vertex="1" parent="1">
          <mxGeometry x="630" y="205" width="30" height="40" as="geometry" />
        </mxCell>
        <mxCell id="V-HGq2eUnzcfwL8OxCPS-10" value="" style="ellipse;whiteSpace=wrap;html=1;aspect=fixed;" vertex="1" parent="1">
          <mxGeometry x="460" y="400" width="80" height="80" as="geometry" />
        </mxCell>
        <mxCell id="V-HGq2eUnzcfwL8OxCPS-11" value="" style="ellipse;whiteSpace=wrap;html=1;aspect=fixed;" vertex="1" parent="1">
          <mxGeometry x="465" y="405" width="70" height="70" as="geometry" />
        </mxCell>
        <mxCell id="V-HGq2eUnzcfwL8OxCPS-13" value="" style="endArrow=classic;html=1;rounded=0;exitX=1;exitY=1;exitDx=0;exitDy=0;entryX=0.291;entryY=0.046;entryDx=0;entryDy=0;entryPerimeter=0;" edge="1" parent="1" source="47XsXpt79vy4vAY9p55C-1" target="V-HGq2eUnzcfwL8OxCPS-10">
          <mxGeometry width="50" height="50" relative="1" as="geometry">
            <mxPoint x="400" y="380" as="sourcePoint" />
            <mxPoint x="450" y="330" as="targetPoint" />
          </mxGeometry>
        </mxCell>
        <mxCell id="V-HGq2eUnzcfwL8OxCPS-14" value="" style="endArrow=classic;html=1;rounded=0;exitX=0;exitY=0;exitDx=0;exitDy=0;entryX=0.73;entryY=0.971;entryDx=0;entryDy=0;entryPerimeter=0;" edge="1" parent="1" source="V-HGq2eUnzcfwL8OxCPS-10" target="47XsXpt79vy4vAY9p55C-1">
          <mxGeometry width="50" height="50" relative="1" as="geometry">
            <mxPoint x="400" y="390" as="sourcePoint" />
            <mxPoint x="450" y="340" as="targetPoint" />
          </mxGeometry>
        </mxCell>
        <mxCell id="V-HGq2eUnzcfwL8OxCPS-15" value="&lt;font style=&quot;font-size: 20px;&quot;&gt;a&lt;/font&gt;" style="text;html=1;align=center;verticalAlign=middle;resizable=0;points=[];autosize=1;strokeColor=none;fillColor=none;" vertex="1" parent="1">
          <mxGeometry x="410" y="350" width="30" height="40" as="geometry" />
        </mxCell>
        <mxCell id="V-HGq2eUnzcfwL8OxCPS-16" value="&lt;font style=&quot;font-size: 20px;&quot;&gt;b&lt;/font&gt;" style="text;html=1;align=center;verticalAlign=middle;resizable=0;points=[];autosize=1;strokeColor=none;fillColor=none;" vertex="1" parent="1">
          <mxGeometry x="460" y="320" width="30" height="40" as="geometry" />
        </mxCell>
        <mxCell id="V-HGq2eUnzcfwL8OxCPS-17" style="edgeStyle=orthogonalEdgeStyle;rounded=0;orthogonalLoop=1;jettySize=auto;html=1;exitX=0;exitY=0;exitDx=0;exitDy=0;entryX=1;entryY=0;entryDx=0;entryDy=0;curved=1;" edge="1" parent="1">
          <mxGeometry relative="1" as="geometry">
            <mxPoint x="528" y="470" as="sourcePoint" />
            <mxPoint x="472" y="470" as="targetPoint" />
            <Array as="points">
              <mxPoint x="528" y="522" />
              <mxPoint x="472" y="522" />
            </Array>
          </mxGeometry>
        </mxCell>
        <mxCell id="V-HGq2eUnzcfwL8OxCPS-18" value="&lt;font style=&quot;font-size: 20px;&quot;&gt;b&lt;/font&gt;" style="text;html=1;align=center;verticalAlign=middle;resizable=0;points=[];autosize=1;strokeColor=none;fillColor=none;" vertex="1" parent="1">
          <mxGeometry x="530" y="475" width="30" height="40" as="geometry" />
        </mxCell>
        <mxCell id="V-HGq2eUnzcfwL8OxCPS-19" value="" style="endArrow=classic;html=1;rounded=0;exitX=0.5;exitY=1;exitDx=0;exitDy=0;entryX=1;entryY=0;entryDx=0;entryDy=0;" edge="1" parent="1" source="V-HGq2eUnzcfwL8OxCPS-4" target="V-HGq2eUnzcfwL8OxCPS-10">
          <mxGeometry width="50" height="50" relative="1" as="geometry">
            <mxPoint x="410" y="440" as="sourcePoint" />
            <mxPoint x="460" y="390" as="targetPoint" />
          </mxGeometry>
        </mxCell>
        <mxCell id="V-HGq2eUnzcfwL8OxCPS-20" value="&lt;font style=&quot;font-size: 20px;&quot;&gt;b&lt;/font&gt;" style="text;html=1;align=center;verticalAlign=middle;resizable=0;points=[];autosize=1;strokeColor=none;fillColor=none;" vertex="1" parent="1">
          <mxGeometry x="565" y="360" width="30" height="40" as="geometry" />
        </mxCell>
      </root>
    </mxGraphModel>
  </diagram>
</mxfile>
